Ivory Tower is a 2010 Canadian feature film and the directorial debut of Adam Traynor, a musician from the German-based hip-hop group Puppetmastaz. The film was co-written by Canadian pianist and rapper Gonzales and French director and screenwriter Céline Sciamma. It is slated for a theatrical release in the Fall of 2010, and stars a variety of Canadian-born musicians, including Gonzales himself, Peaches, Feist and Tiga. Additionally, Gonzales' mother appears in the film.


Format : MPEG-4
Format profile : Base Media / Version 2
Codec ID : mp42
File size : 880 MiB
Duration : 1h 12mn
Overall bit rate mode : Variable
Overall bit rate : 1 698 Kbps
Writing application : Sorenson Squeeze

Video
ID : 2
Format : AVC
Format/Info : Advanced Video Codec
Format profile : Baseline@L3.0
Format settings, CABAC : No
Format settings, ReFrames : 3 frames
Format settings, GOP : M=1, N=30
Codec ID : avc1
Codec ID/Info : Advanced Video Coding
Duration : 1h 12mn
Bit rate mode : Variable
Bit rate : 1 405 Kbps
Maximum bit rate : 2 248 Kbps
Width : 720 pixels
Height : 404 pixels
Display aspect ratio : 16:9
Frame rate mode : Constant
Frame rate : 24.000 fps
Standard : NTSC
Color space : YUV
Chroma subsampling : 4:2:0
Bit depth : 8 bits
Scan type : Progressive
Bits/(Pixel*Frame) : 0.201
Stream size : 729 MiB (83%)

Audio
ID : 1
Format : AAC
Format/Info : Advanced Audio Codec
Format profile : LC
Codec ID : 40
Duration : 1h 12mn
Bit rate mode : Constant
Bit rate : 288 Kbps
Channel(s) : 2 channels
Channel positions : Front: L R
Sampling rate : 48.0 KHz
Compression mode : Lossy
Stream size : 149 MiB (17%)